PathFileType	4	(X/Y/Z)	C:\Users\Basilio\Documents\Thesis Gigler\squatting_fais\c3dfiles\054\SJ_pre1\markers_experimental.trc
DataRate	CameraRate	NumFrames	NumMarkers	Units	OrigDataRate	OrigDataStartFrame	OrigNumFrames
200.000000	200.000000	4	61	mm	200.000000	984	1968
Frame#	Time	FHD			LBHD			RBHD			C7			T10			CLAV			LSHO			LUUPA			LMUPA			LDUPA			LLEP			LMEP			LRAD			LUL			LRFIN			RSHO			RUPA1			RMUPA			RDUPA			RLEP			RMEP			RRAD			RUL			RUFIN			LASI			RASI			USACR			LSACR			RSACR			LTHI1			LTHI2			LTHI3			LTHI4			LLFC			LMFC			LTIB1			LTIB2			LTIB3			LTIB4			LLMAL			LMMAL			LHEE			LMT1			LMT2			LMT5			RTHI			RTHI2			RTHI3			RTHI4			RLFC			RMFC			RTIB1			RTIB2			RTIB3			RTIB4			RLMAL			RMMAL			RHEE			RMT1			RMT2			RMT5			
		X1	Y1	Z1	X2	Y2	Z2	X3	Y3	Z3	X4	Y4	Z4	X5	Y5	Z5	X6	Y6	Z6	X7	Y7	Z7	X8	Y8	Z8	X9	Y9	Z9	X10	Y10	Z10	X11	Y11	Z11	X12	Y12	Z12	X13	Y13	Z13	X14	Y14	Z14	X15	Y15	Z15	X16	Y16	Z16	X17	Y17	Z17	X18	Y18	Z18	X19	Y19	Z19	X20	Y20	Z20	X21	Y21	Z21	X22	Y22	Z22	X23	Y23	Z23	X24	Y24	Z24	X25	Y25	Z25	X26	Y26	Z26	X27	Y27	Z27	X28	Y28	Z28	X29	Y29	Z29	X30	Y30	Z30	X31	Y31	Z31	X32	Y32	Z32	X33	Y33	Z33	X34	Y34	Z34	X35	Y35	Z35	X36	Y36	Z36	X37	Y37	Z37	X38	Y38	Z38	X39	Y39	Z39	X40	Y40	Z40	X41	Y41	Z41	X42	Y42	Z42	X43	Y43	Z43	X44	Y44	Z44	X45	Y45	Z45	X46	Y46	Z46	X47	Y47	Z47	X48	Y48	Z48	X49	Y49	Z49	X50	Y50	Z50	X51	Y51	Z51	X52	Y52	Z52	X53	Y53	Z53	X54	Y54	Z54	X55	Y55	Z55	X56	Y56	Z56	X57	Y57	Z57	X58	Y58	Z58	X59	Y59	Z59	X60	Y60	Z60	X61	Y61	Z61	

985	4.92	129.1375732421875	1141.392456054688	-894.8060302734377	-31.68373107910157	1100.191040039063	-973.1864013671877	-55.13510894775392	1096.705932617188	-835.1029052734377	-103.5976638793946	1019.861267089844	-897.3530273437502	-383.2065734863282	842.0654296875002	-938.445739746094	-40.90780258178712	870.0588378906252	-902.6916503906252	-13.61662673950196	941.201354980469	-1054.797729492188	-138.4900054931641	938.290222167969	-1249.31689453125	-146.897201538086	888.2373657226565	-1258.87353515625	-182.7703094482422	913.891784667969	-1299.794921875	-232.6614990234376	873.9323730468752	-1325.762939453125	-292.1858215332032	930.6409301757815	-1290.871948242188	-419.0768432617189	755.6608276367189	-1173.432373046875	-419.6744079589845	696.2103271484376	-1220.323852539063	-380.4332275390626	720.6768188476564	-1130.71533203125	-33.62603759765626	927.2476196289065	-740.8283691406251	-200.0764923095704	915.2361450195315	-572.6464843750001	-217.6980743408204	869.9020996093752	-568.2238159179689	-259.5007934570313	900.7608032226565	-536.2882080078126	-307.6855468750001	878.9077758789065	-525.7989501953126	-349.5839233398438	936.4737548828127	-577.2677001953126	-468.9967651367189	761.3309326171876	-721.0484619140626	-463.6531372070314	701.0802612304689	-670.5123291015626	-414.7699584960939	733.8659667968751	-748.9472656250001	-373.5146484375001	627.9904174804689	-1061.718627929688	-382.1908874511719	637.9616088867189	-800.3420410156252	-467.9912109375001	787.9226074218752	-941.583923339844	-494.9080505371095	769.7176513671877	-969.6013793945315	-498.3472900390626	771.700378417969	-912.4129028320315	-425.3601989746095	558.3474731445314	-1203.687622070313	-344.2909240722657	550.8107910156251	-1228.815307617188	-318.9410095214844	588.8902587890626	-1214.279174804688	-312.2690124511719	500.8774719238282	-1240.863037109375	-193.6898651123047	434.1686401367189	-1262.990844726563	-130.2077331542969	423.3275756835939	-1139.959838867188	-206.1180419921876	278.5814819335938	-1219.72900390625	-286.8150329589844	266.6206054687501	-1257.99853515625	-250.4439239501954	245.9799804687501	-1241.113037109375	-284.6090393066407	181.2325134277344	-1199.365600585938	-411.6827697753907	91.11191558837892	-1214.4560546875	-352.8045654296876	98.424186706543	-1135.18603515625	-467.3075561523439	54.15180587768556	-1141.103759765625	-252.1117858886719	52.4378128051758	-1199.216796875	-262.8898315429688	56.2273635864258	-1247.53955078125	-328.6563720703126	36.0570182800293	-1282.197875976563	-385.6607971191407	533.8441162109376	-647.5513916015626	-320.8214416503907	543.1377563476564	-628.5558471679689	-301.1140441894532	569.4759521484376	-635.6962890625001	-267.8523254394532	480.2080688476564	-612.0642700195314	-220.2910919189454	436.7869262695314	-595.3588256835939	-142.1122589111328	437.667938232422	-711.6759033203126	-204.4629516601563	331.3751831054688	-593.3529052734376	-311.5729980468751	303.3457641601563	-592.3955688476564	-273.0294494628907	276.3711853027344	-592.0761718750001	-278.6231994628907	226.640365600586	-619.5617675781251	-412.0494995117189	94.77771759033205	-633.4470214843751	-354.1305541992188	100.255859375	-707.3386840820314	-467.1954956054689	53.23066329956056	-703.9251098632814	-246.5285186767579	50.2554168701172	-649.9878540039064	-260.1938171386719	54.70973968505861	-604.3406982421876	-319.6020202636719	34.54565048217774	-569.3582763671876	
986	4.925	129.3632202148438	1141.856079101563	-894.896423339844	-31.73069763183594	1100.515869140625	-973.0944824218752	-55.0517044067383	1097.102783203125	-835.1136474609377	-103.6684036254883	1020.270080566406	-897.2527465820315	-383.0307922363282	842.2981567382815	-938.3933715820315	-40.92398071289063	870.4007568359377	-902.6370239257815	-13.52593517303467	941.5798339843752	-1054.723022460938	-138.3590240478516	938.503601074219	-1249.1826171875	-146.7632446289063	888.521667480469	-1258.7490234375	-182.661605834961	914.1460571289065	-1299.662963867188	-232.4556884765626	874.1181640625002	-1325.625610351563	-292.0883178710938	930.833679199219	-1290.696044921875	-419.0084533691407	755.8267822265626	-1173.36865234375	-419.5119934082032	696.3400878906251	-1220.34228515625	-380.3486022949219	721.0197753906251	-1130.93115234375	-33.71492385864259	927.7393188476565	-740.6844482421876	-200.0515136718751	915.584411621094	-572.5950927734376	-217.6224212646485	870.2857666015627	-568.1439208984376	-259.3349609375001	901.1521606445315	-536.2821655273439	-307.7965393066407	879.313171386719	-525.6402587890626	-349.5563354492188	936.685729980469	-577.1596069335939	-468.7988891601564	761.5075073242189	-720.9442749023439	-463.5032348632814	701.3641967773439	-670.3602294921876	-414.1072692871095	734.1771850585939	-748.6669921875001	-373.5368347167969	628.1379394531251	-1061.5810546875	-381.9338684082032	638.3134155273439	-800.233337402344	-467.838592529297	788.2017211914065	-941.5137939453127	-494.8541259765626	769.9358520507815	-969.487976074219	-498.2453002929689	771.9564208984377	-912.2705078125002	-425.2755432128907	558.5784912109376	-1203.73291015625	-344.2144470214844	550.9458618164064	-1228.799560546875	-318.8016967773438	588.9542846679689	-1214.1171875	-312.1461486816407	500.8860778808595	-1240.679321289063	-193.5938110351563	434.1585083007814	-1262.826538085938	-130.0539703369141	423.3270568847657	-1139.751220703125	-206.1714935302735	278.5545654296876	-1219.541137695313	-286.7161560058594	266.6529235839844	-1257.860595703125	-250.4371490478516	245.9484405517579	-1240.914428710938	-284.8111267089844	180.9927978515625	-1199.287231445313	-411.6578674316407	91.1398391723633	-1214.49267578125	-352.7869567871094	98.39630126953128	-1135.179565429688	-467.278533935547	54.14454650878908	-1141.088134765625	-252.1402740478516	52.55941390991212	-1199.098266601563	-262.9046325683594	56.24709320068361	-1247.535522460938	-328.6958007812501	36.07949447631837	-1282.158447265625	-385.5668945312501	533.9274291992189	-647.4611206054689	-320.7427368164063	543.1924438476564	-628.4398803710939	-300.9829406738282	569.5310058593751	-635.6359252929689	-267.7583312988282	480.2269897460939	-612.0700073242189	-220.2507629394532	436.7892150878907	-595.3435668945314	-142.1157836914063	437.6948242187501	-711.6732788085939	-204.4353790283204	331.3705749511719	-593.3361206054689	-311.4997253417969	303.3494873046876	-592.4689331054689	-272.9895935058594	276.3723754882813	-592.0717163085939	-278.6036071777344	226.6491699218751	-619.5733032226564	-412.0753479003907	94.7875213623047	-633.4470825195314	-354.1729125976563	100.2666015625	-707.3665161132814	-467.4315795898439	53.18769454956056	-703.8167114257814	-246.5392456054688	50.20494079589845	-649.9799804687501	-260.2239379882813	54.70821762084962	-604.4036254882814	-319.6284179687501	34.53787994384766	-569.3942871093751	
987	4.93	129.3878326416016	1142.27783203125	-894.8426513671877	-31.85546112060548	1101.009887695313	-973.1322021484377	-55.01582336425783	1097.4033203125	-835.0574340820315	-103.6697845458985	1020.532958984375	-897.132995605469	-382.9565429687501	842.480407714844	-938.3197021484377	-40.86133575439454	870.6970214843752	-902.508483886719	-13.51784324645996	941.8713989257815	-1054.623779296875	-138.2732543945313	938.7554931640627	-1249.16943359375	-146.6788635253907	888.7256469726565	-1258.6494140625	-182.7465209960938	914.3117675781252	-1299.412841796875	-232.3176422119141	874.3533325195315	-1325.541625976563	-292.0817565917969	931.0375976562502	-1290.637329101563	-418.8127746582032	755.8942871093751	-1173.30322265625	-419.3418884277345	696.4042358398439	-1220.275268554688	-380.2475280761719	721.0786743164064	-1130.844482421875	-33.69018554687501	928.2796630859377	-740.6274414062501	-200.1218414306641	916.0291137695315	-572.4122314453126	-217.6898956298829	870.748718261719	-568.0143432617189	-259.5111694335938	901.512878417969	-536.2205810546876	-307.7260131835938	879.7512207031252	-525.6684570312501	-349.2756042480469	936.9450683593752	-577.1220703125001	-468.5866699218751	761.5934448242189	-720.8511962890626	-463.3296508789064	701.5219726562501	-670.2645874023439	-414.0609741210939	734.3143310546876	-748.5158691406251	-373.3921508789063	628.3618774414064	-1061.404418945313	-382.0795898437501	638.3189697265626	-800.1409301757815	-467.8230285644532	788.5183105468752	-941.4348144531252	-494.2407531738282	769.900817871094	-969.6450805664065	-498.0765686035157	772.1269531250002	-912.2982177734377	-425.1774902343751	558.7642822265626	-1203.829345703125	-344.0681762695313	551.0835571289064	-1228.63720703125	-318.9197692871094	589.0341186523439	-1214.073364257813	-312.0267944335938	500.981414794922	-1240.4404296875	-193.5355377197266	434.1460571289064	-1262.71533203125	-129.9673309326172	423.3085021972657	-1139.592163085938	-206.1616210937501	278.5365600585938	-1219.44140625	-286.6845703125001	266.6734008789063	-1257.791015625	-250.400131225586	245.9523468017579	-1240.7919921875	-284.7662353515626	181.0250244140625	-1199.212524414063	-411.6219787597657	91.13108825683595	-1214.44140625	-352.8009338378907	98.370719909668	-1135.099853515625	-467.312469482422	54.12744140625001	-1141.080810546875	-252.0797424316407	52.44049072265626	-1199.174926757813	-262.8978881835938	56.270565032959	-1247.53759765625	-328.6467285156251	36.08739089965821	-1282.168701171875	-385.5119628906251	534.0192871093751	-647.3726196289064	-320.7064208984376	543.2260131835939	-628.3851318359376	-300.9097595214844	569.5664672851564	-635.5913085937501	-267.6667175292969	480.1566162109376	-612.1419067382814	-220.1809692382813	436.7509155273439	-595.3483886718751	-141.9528350830078	437.7451782226564	-711.6825561523439	-204.3724517822266	331.3662414550782	-593.2999877929689	-311.3834533691407	303.3310241699219	-592.4987182617189	-272.9781494140626	276.3714904785157	-592.0844116210939	-278.5759277343751	226.6439514160157	-619.6040039062501	-412.0368041992189	94.80285644531251	-633.4617919921876	-354.1383666992188	100.2645797729492	-707.3596801757814	-467.1253967285157	53.21578598022462	-704.0048217773439	-246.5013122558594	50.26300430297853	-650.0231933593751	-260.2302856445313	54.70009994506837	-604.4025268554689	-319.6152343750001	34.54934310913087	-569.3762207031251	
988	4.935	129.4355926513672	1142.728637695313	-894.8147583007815	-32.13435363769532	1101.322387695313	-973.0841064453127	-55.11775970458986	1097.750732421875	-834.9846801757815	-103.775016784668	1020.842529296875	-896.9348144531252	-382.8515319824219	842.7446289062502	-938.2629394531252	-40.8581657409668	870.908386230469	-902.3684082031252	-13.41839790344239	942.1757812500002	-1054.546752929688	-138.223388671875	938.978454589844	-1249.05615234375	-146.5981140136719	888.8344726562502	-1258.593505859375	-182.6803131103516	914.4843750000002	-1299.325927734375	-232.1876068115235	874.4882812500002	-1325.377807617188	-292.0686340332032	931.1924438476565	-1290.612060546875	-418.7593383789064	756.0109252929689	-1173.235229492188	-419.1671752929689	696.5579223632814	-1220.197265625	-379.9868469238282	721.4242553710939	-1130.943359375	-33.66409301757813	928.7713623046877	-740.5059204101564	-200.0988922119141	916.391540527344	-572.2562866210939	-217.6782531738282	871.023376464844	-567.9264526367189	-259.6569213867188	901.8361816406252	-536.0611572265626	-307.5689086914063	880.0708618164065	-525.5850219726564	-349.2794799804688	937.2384033203127	-577.1187744140626	-468.3558044433595	761.6970214843751	-720.7080688476564	-463.1150512695314	701.6621704101564	-670.1944580078126	-414.1372680664064	734.5150146484376	-748.5698852539064	-373.3340759277344	628.5227661132814	-1061.338989257813	-381.7254638671876	638.6851806640626	-800.115661621094	-467.5975952148439	788.677429199219	-941.3709716796877	-494.5694274902345	770.382019042969	-969.4589843750002	-497.859588623047	772.2786865234377	-912.263122558594	-425.0884399414064	558.9280395507814	-1203.927368164063	-343.9346313476563	551.1651000976564	-1228.350830078125	-318.7617492675782	589.1098022460939	-1213.919677734375	-311.8871459960938	500.9877929687501	-1240.23046875	-193.4383697509766	434.1570739746095	-1262.634521484375	-129.925765991211	423.2949829101564	-1139.576171875	-206.0768585205079	278.5390930175782	-1219.286743164063	-286.6547546386719	266.6862182617188	-1257.633178710938	-250.3952789306641	245.963607788086	-1240.6650390625	-284.7947387695313	181.01708984375	-1199.14453125	-411.3430786132814	91.0378875732422	-1214.484497070313	-352.8129272460938	98.33599090576175	-1135.086181640625	-467.1946716308595	54.0598602294922	-1141.084106445313	-252.0888824462891	52.4353485107422	-1199.170043945313	-262.9427490234376	56.10950088500978	-1247.543212890625	-328.7129821777344	36.10240173339844	-1282.130615234375	-385.4647827148439	534.0829467773439	-647.2893066406251	-320.6029663085938	543.2952270507814	-628.2966308593751	-300.8197937011719	569.5957031250001	-635.5341186523439	-267.5967407226563	480.1882324218751	-612.0985107421876	-220.1428833007813	436.7498779296876	-595.3320312500001	-141.9540100097657	437.6616821289064	-711.6780395507814	-204.3574829101563	331.3430480957032	-593.3267211914064	-311.3253479003907	303.2931213378907	-592.5142211914064	-272.9655761718751	276.3478088378907	-592.1123657226564	-278.5831909179688	226.6352233886719	-619.5814819335939	-412.0231018066407	94.78626251220705	-633.5069580078126	-354.1380004882813	100.2449035644532	-707.3734130859376	-467.0673217773439	53.19778060913087	-704.0543823242189	-246.4512939453126	50.28574752807619	-650.0194091796876	-260.2205200195313	54.75275802612306	-604.3894653320314	-319.6026000976563	34.56180953979493	-569.3938598632814	
